<svg id="Слой_1" data-name="Слой 1" xmlns="http://www.w3.org/2000/svg" viewBox="0 0 895.11 796.68"><defs><style>.cls-1{fill:#666;}.cls-2{fill:none;stroke:#666;stroke-miterlimit:10;stroke-width:3px;}</style></defs><title>sector</title><path class="cls-1" d="M287.49,845.77h-32v42.16c0,14,14.33,25.38,32,25.38h0c17.67,0,32-11.36,32-25.38V845.77Z" transform="translate(-255 -682)"/><path class="cls-1" d="M361.65,845.77h-32v42.16c0,14,14.33,25.38,32,25.38h0c17.67,0,32-11.36,32-25.38V845.77Z" transform="translate(-255 -682)"/><path class="cls-1" d="M435.81,845.77h-32v42.16c0,14,14.33,25.38,32,25.38h0c17.67,0,32-11.36,32-25.38V845.77Z" transform="translate(-255 -682)"/><path class="cls-1" d="M510,845.77H478v42.16c0,14,14.33,25.38,32,25.38h0c17.67,0,32-11.36,32-25.38V845.77Z" transform="translate(-255 -682)"/><path class="cls-1" d="M584.13,845.77h-32v42.16c0,14,14.33,25.38,32,25.38h0c17.67,0,32-11.36,32-25.38V845.77Z" transform="translate(-255 -682)"/><path class="cls-1" d="M658.29,845.77h-32v42.16c0,14,14.33,25.38,32,25.38h0c17.67,0,32-11.36,32-25.38V845.77Z" transform="translate(-255 -682)"/><path class="cls-1" d="M287.49,926.47h-32v42.16c0,14,14.33,25.38,32,25.38h0c17.67,0,32-11.36,32-25.38V926.47Z" transform="translate(-255 -682)"/><path class="cls-1" d="M361.65,926.47h-32v42.16c0,14,14.33,25.38,32,25.38h0c17.67,0,32-11.36,32-25.38V926.47Z" transform="translate(-255 -682)"/><path class="cls-1" d="M435.81,926.47h-32v42.16c0,14,14.33,25.38,32,25.38h0c17.67,0,32-11.36,32-25.38V926.47Z" transform="translate(-255 -682)"/><path class="cls-1" d="M510,926.47H478v42.16c0,14,14.33,25.38,32,25.38h0c17.67,0,32-11.36,32-25.38V926.47Z" transform="translate(-255 -682)"/><path class="cls-1" d="M584.13,926.47h-32v42.16c0,14,14.33,25.38,32,25.38h0c17.67,0,32-11.36,32-25.38V926.47Z" transform="translate(-255 -682)"/><path class="cls-1" d="M658.29,926.47h-32v42.16c0,14,14.33,25.38,32,25.38h0c17.67,0,32-11.36,32-25.38V926.47Z" transform="translate(-255 -682)"/><path class="cls-1" d="M287,1007.17H255v42.16c0,14,14.33,25.39,32,25.39h0c17.68,0,32-11.37,32-25.39v-42.16Z" transform="translate(-255 -682)"/><path class="cls-1" d="M361.16,1007.17h-32v42.16c0,14,14.33,25.39,32,25.39h0c17.68,0,32-11.37,32-25.39v-42.16Z" transform="translate(-255 -682)"/><path class="cls-1" d="M435.32,1007.17h-32v42.16c0,14,14.33,25.39,32,25.39h0c17.68,0,32-11.37,32-25.39v-42.16Z" transform="translate(-255 -682)"/><path class="cls-1" d="M509.48,1007.17h-32v42.16c0,14,14.33,25.39,32,25.39h0c17.68,0,32-11.37,32-25.39v-42.16Z" transform="translate(-255 -682)"/><path class="cls-1" d="M583.64,1007.17h-32v42.16c0,14,14.33,25.39,32,25.39h0c17.68,0,32-11.37,32-25.39v-42.16Z" transform="translate(-255 -682)"/><path class="cls-1" d="M657.8,1007.17h-32v42.16c0,14,14.33,25.39,32,25.39h0c17.68,0,32-11.37,32-25.39v-42.16Z" transform="translate(-255 -682)"/><path class="cls-1" d="M746.63,845.77h-32v42.16c0,14,14.32,25.38,32,25.38h0c17.67,0,32-11.36,32-25.38V845.77Z" transform="translate(-255 -682)"/><path class="cls-1" d="M820.79,845.77h-32v42.16c0,14,14.32,25.38,32,25.38h0c17.67,0,32-11.36,32-25.38V845.77Z" transform="translate(-255 -682)"/><path class="cls-1" d="M895,845.77H863v42.16c0,14,14.32,25.38,32,25.38h0c17.67,0,32-11.36,32-25.38V845.77Z" transform="translate(-255 -682)"/><path class="cls-1" d="M969.11,845.77h-32v42.16c0,14,14.32,25.38,32,25.38h0c17.67,0,32-11.36,32-25.38V845.77Z" transform="translate(-255 -682)"/><path class="cls-1" d="M1043.27,845.77h-32v42.16c0,14,14.32,25.38,32,25.38h0c17.67,0,32-11.36,32-25.38V845.77Z" transform="translate(-255 -682)"/><path class="cls-1" d="M1117.43,845.77h-32v42.16c0,14,14.32,25.38,32,25.38h0c17.67,0,32-11.36,32-25.38V845.77Z" transform="translate(-255 -682)"/><path class="cls-1" d="M746.63,926.47h-32v42.16c0,14,14.32,25.38,32,25.38h0c17.67,0,32-11.36,32-25.38V926.47Z" transform="translate(-255 -682)"/><path class="cls-1" d="M820.79,926.47h-32v42.16c0,14,14.32,25.38,32,25.38h0c17.67,0,32-11.36,32-25.38V926.47Z" transform="translate(-255 -682)"/><path class="cls-1" d="M895,926.47H863v42.16c0,14,14.32,25.38,32,25.38h0c17.67,0,32-11.36,32-25.38V926.47Z" transform="translate(-255 -682)"/><path class="cls-1" d="M969.11,926.47h-32v42.16c0,14,14.32,25.38,32,25.38h0c17.67,0,32-11.36,32-25.38V926.47Z" transform="translate(-255 -682)"/><path class="cls-1" d="M1043.27,926.47h-32v42.16c0,14,14.32,25.38,32,25.38h0c17.67,0,32-11.36,32-25.38V926.47Z" transform="translate(-255 -682)"/><path class="cls-1" d="M1117.43,926.47h-32v42.16c0,14,14.32,25.38,32,25.38h0c17.67,0,32-11.36,32-25.38V926.47Z" transform="translate(-255 -682)"/><path class="cls-1" d="M746.14,1007.17h-32v42.16c0,14,14.33,25.39,32,25.39h0c17.68,0,32-11.37,32-25.39v-42.16Z" transform="translate(-255 -682)"/><path class="cls-1" d="M820.3,1007.17h-32v42.16c0,14,14.33,25.39,32,25.39h0c17.68,0,32-11.37,32-25.39v-42.16Z" transform="translate(-255 -682)"/><path class="cls-1" d="M894.46,1007.17h-32v42.16c0,14,14.33,25.39,32,25.39h0c17.68,0,32-11.37,32-25.39v-42.16Z" transform="translate(-255 -682)"/><path class="cls-1" d="M968.62,1007.17h-32v42.16c0,14,14.33,25.39,32,25.39h0c17.68,0,32-11.37,32-25.39v-42.16Z" transform="translate(-255 -682)"/><path class="cls-1" d="M1042.78,1007.17h-32v42.16c0,14,14.33,25.39,32,25.39h0c17.68,0,32-11.37,32-25.39v-42.16Z" transform="translate(-255 -682)"/><path class="cls-1" d="M1116.94,1007.17h-32v42.16c0,14,14.33,25.39,32,25.39h0c17.68,0,32-11.37,32-25.39v-42.16Z" transform="translate(-255 -682)"/><path class="cls-1" d="M288.06,1100.05h-32v42.16c0,14,14.33,25.39,32,25.39h0c17.67,0,32-11.37,32-25.39v-42.16Z" transform="translate(-255 -682)"/><path class="cls-1" d="M362.22,1100.05h-32v42.16c0,14,14.33,25.39,32,25.39h0c17.67,0,32-11.37,32-25.39v-42.16Z" transform="translate(-255 -682)"/><path class="cls-1" d="M436.38,1100.05h-32v42.16c0,14,14.33,25.39,32,25.39h0c17.67,0,32-11.37,32-25.39v-42.16Z" transform="translate(-255 -682)"/><path class="cls-1" d="M510.54,1100.05h-32v42.16c0,14,14.33,25.39,32,25.39h0c17.67,0,32-11.37,32-25.39v-42.16Z" transform="translate(-255 -682)"/><path class="cls-1" d="M584.7,1100.05h-32v42.16c0,14,14.33,25.39,32,25.39h0c17.67,0,32-11.37,32-25.39v-42.16Z" transform="translate(-255 -682)"/><path class="cls-1" d="M658.86,1100.05h-32v42.16c0,14,14.33,25.39,32,25.39h0c17.67,0,32-11.37,32-25.39v-42.16Z" transform="translate(-255 -682)"/><path class="cls-1" d="M288.06,1180.75h-32v42.16c0,14,14.33,25.39,32,25.39h0c17.67,0,32-11.37,32-25.39v-42.16Z" transform="translate(-255 -682)"/><path class="cls-1" d="M362.22,1180.75h-32v42.16c0,14,14.33,25.39,32,25.39h0c17.67,0,32-11.37,32-25.39v-42.16Z" transform="translate(-255 -682)"/><path class="cls-1" d="M436.38,1180.75h-32v42.16c0,14,14.33,25.39,32,25.39h0c17.67,0,32-11.37,32-25.39v-42.16Z" transform="translate(-255 -682)"/><path class="cls-1" d="M510.54,1180.75h-32v42.16c0,14,14.33,25.39,32,25.39h0c17.67,0,32-11.37,32-25.39v-42.16Z" transform="translate(-255 -682)"/><path class="cls-1" d="M584.7,1180.75h-32v42.16c0,14,14.33,25.39,32,25.39h0c17.67,0,32-11.37,32-25.39v-42.16Z" transform="translate(-255 -682)"/><path class="cls-1" d="M658.86,1180.75h-32v42.16c0,14,14.33,25.39,32,25.39h0c17.67,0,32-11.37,32-25.39v-42.16Z" transform="translate(-255 -682)"/><path class="cls-1" d="M287.57,1261.45h-32v42.16c0,14,14.33,25.39,32,25.39h0c17.68,0,32-11.37,32-25.39v-42.16Z" transform="translate(-255 -682)"/><path class="cls-1" d="M361.73,1261.45h-32v42.16c0,14,14.33,25.39,32,25.39h0c17.68,0,32-11.37,32-25.39v-42.16Z" transform="translate(-255 -682)"/><path class="cls-1" d="M435.89,1261.45h-32v42.16c0,14,14.33,25.39,32,25.39h0c17.68,0,32-11.37,32-25.39v-42.16Z" transform="translate(-255 -682)"/><path class="cls-1" d="M510.05,1261.45h-32v42.16c0,14,14.33,25.39,32,25.39h0c17.68,0,32-11.37,32-25.39v-42.16Z" transform="translate(-255 -682)"/><path class="cls-1" d="M584.21,1261.45h-32v42.16c0,14,14.33,25.39,32,25.39h0c17.68,0,32-11.37,32-25.39v-42.16Z" transform="translate(-255 -682)"/><path class="cls-1" d="M658.37,1261.45h-32v42.16c0,14,14.33,25.39,32,25.39h0c17.68,0,32-11.37,32-25.39v-42.16Z" transform="translate(-255 -682)"/><path class="cls-1" d="M747.2,1100.05h-32v42.16c0,14,14.32,25.39,32,25.39h0c17.67,0,32-11.37,32-25.39v-42.16Z" transform="translate(-255 -682)"/><path class="cls-1" d="M821.36,1100.05h-32v42.16c0,14,14.32,25.39,32,25.39h0c17.67,0,32-11.37,32-25.39v-42.16Z" transform="translate(-255 -682)"/><path class="cls-1" d="M895.52,1100.05h-32v42.16c0,14,14.32,25.39,32,25.39h0c17.67,0,32-11.37,32-25.39v-42.16Z" transform="translate(-255 -682)"/><path class="cls-1" d="M969.68,1100.05h-32v42.16c0,14,14.32,25.39,32,25.39h0c17.67,0,32-11.37,32-25.39v-42.16Z" transform="translate(-255 -682)"/><path class="cls-1" d="M1043.84,1100.05h-32v42.16c0,14,14.32,25.39,32,25.39h0c17.67,0,32-11.37,32-25.39v-42.16Z" transform="translate(-255 -682)"/><path class="cls-1" d="M1118,1100.05h-32v42.16c0,14,14.32,25.39,32,25.39h0c17.67,0,32-11.37,32-25.39v-42.16Z" transform="translate(-255 -682)"/><path class="cls-1" d="M747.2,1180.75h-32v42.16c0,14,14.32,25.39,32,25.39h0c17.67,0,32-11.37,32-25.39v-42.16Z" transform="translate(-255 -682)"/><path class="cls-1" d="M821.36,1180.75h-32v42.16c0,14,14.32,25.39,32,25.39h0c17.67,0,32-11.37,32-25.39v-42.16Z" transform="translate(-255 -682)"/><path class="cls-1" d="M895.52,1180.75h-32v42.16c0,14,14.32,25.39,32,25.39h0c17.67,0,32-11.37,32-25.39v-42.16Z" transform="translate(-255 -682)"/><path class="cls-1" d="M969.68,1180.75h-32v42.16c0,14,14.32,25.39,32,25.39h0c17.67,0,32-11.37,32-25.39v-42.16Z" transform="translate(-255 -682)"/><path class="cls-1" d="M1043.84,1180.75h-32v42.16c0,14,14.32,25.39,32,25.39h0c17.67,0,32-11.37,32-25.39v-42.16Z" transform="translate(-255 -682)"/><path class="cls-1" d="M1118,1180.75h-32v42.16c0,14,14.32,25.39,32,25.39h0c17.67,0,32-11.37,32-25.39v-42.16Z" transform="translate(-255 -682)"/><path class="cls-1" d="M746.71,1261.45h-32v42.16c0,14,14.33,25.39,32,25.39h0c17.68,0,32-11.37,32-25.39v-42.16Z" transform="translate(-255 -682)"/><path class="cls-1" d="M820.87,1261.45h-32v42.16c0,14,14.33,25.39,32,25.39h0c17.68,0,32-11.37,32-25.39v-42.16Z" transform="translate(-255 -682)"/><path class="cls-1" d="M895,1261.45H863v42.16c0,14,14.33,25.39,32,25.39h0c17.68,0,32-11.37,32-25.39v-42.16Z" transform="translate(-255 -682)"/><path class="cls-1" d="M969.19,1261.45h-32v42.16c0,14,14.33,25.39,32,25.39h0c17.68,0,32-11.37,32-25.39v-42.16Z" transform="translate(-255 -682)"/><path class="cls-1" d="M1043.35,1261.45h-32v42.16c0,14,14.33,25.39,32,25.39h0c17.68,0,32-11.37,32-25.39v-42.16Z" transform="translate(-255 -682)"/><path class="cls-1" d="M1117.51,1261.45h-32v42.16c0,14,14.33,25.39,32,25.39h0c17.68,0,32-11.37,32-25.39v-42.16Z" transform="translate(-255 -682)"/><path class="cls-1" d="M325.15,1393.54h-69v53.14c0,17.68,30.9,32,69,32h0c38.12,0,69-14.32,69-32v-53.14Z" transform="translate(-255 -682)"/><path class="cls-1" d="M473.46,1393.54h-69v53.14c0,17.68,30.89,32,69,32h0c38.11,0,69-14.32,69-32v-53.14Z" transform="translate(-255 -682)"/><path class="cls-1" d="M621.77,1393.54h-69v53.14c0,17.68,30.89,32,69,32h0c38.1,0,69-14.32,69-32v-53.14Z" transform="translate(-255 -682)"/><path class="cls-1" d="M784.3,1393.54h-69v53.14c0,17.68,30.9,32,69,32h0c38.11,0,69-14.32,69-32v-53.14Z" transform="translate(-255 -682)"/><path class="cls-1" d="M932.6,1393.54h-69v53.14c0,17.68,30.9,32,69,32h0c38.11,0,69-14.32,69-32v-53.14Z" transform="translate(-255 -682)"/><path class="cls-1" d="M1080.91,1393.54h-69v53.14c0,17.68,30.89,32,69,32h0c38.1,0,69-14.32,69-32v-53.14Z" transform="translate(-255 -682)"/><path class="cls-2" d="M256.14,715.16a3169.67,3169.67,0,0,1,893.76,0" transform="translate(-255 -682)"/></svg>