<svg id="Слой_1" data-name="Слой 1" xmlns="http://www.w3.org/2000/svg" viewBox="0 0 895 483.23"><defs><style>.cls-1{fill:#ff12bd;}</style></defs><title>standard_sector_pink</title><path class="cls-1" d="M32.49,163.77H.49v42.16c0,14,14.33,25.38,32,25.38h0c17.67,0,32-11.36,32-25.38V163.77Z" transform="translate(0 -163.77)"/><path class="cls-1" d="M106.65,163.77h-32v42.16c0,14,14.33,25.38,32,25.38h0c17.67,0,32-11.36,32-25.38V163.77Z" transform="translate(0 -163.77)"/><path class="cls-1" d="M180.81,163.77h-32v42.16c0,14,14.33,25.38,32,25.38h0c17.67,0,32-11.36,32-25.38V163.77Z" transform="translate(0 -163.77)"/><path class="cls-1" d="M255,163.77H223v42.16c0,14,14.33,25.38,32,25.38h0c17.67,0,32-11.36,32-25.38V163.77Z" transform="translate(0 -163.77)"/><path class="cls-1" d="M329.13,163.77h-32v42.16c0,14,14.33,25.38,32,25.38h0c17.67,0,32-11.36,32-25.38V163.77Z" transform="translate(0 -163.77)"/><path class="cls-1" d="M403.29,163.77h-32v42.16c0,14,14.33,25.38,32,25.38h0c17.67,0,32-11.36,32-25.38V163.77Z" transform="translate(0 -163.77)"/><path class="cls-1" d="M32.49,244.47H.49v42.16c0,14,14.33,25.38,32,25.38h0c17.67,0,32-11.36,32-25.38V244.47Z" transform="translate(0 -163.77)"/><path class="cls-1" d="M106.65,244.47h-32v42.16c0,14,14.33,25.38,32,25.38h0c17.67,0,32-11.36,32-25.38V244.47Z" transform="translate(0 -163.77)"/><path class="cls-1" d="M180.81,244.47h-32v42.16c0,14,14.33,25.38,32,25.38h0c17.67,0,32-11.36,32-25.38V244.47Z" transform="translate(0 -163.77)"/><path class="cls-1" d="M255,244.47H223v42.16c0,14,14.33,25.38,32,25.38h0c17.67,0,32-11.36,32-25.38V244.47Z" transform="translate(0 -163.77)"/><path class="cls-1" d="M329.13,244.47h-32v42.16c0,14,14.33,25.38,32,25.38h0c17.67,0,32-11.36,32-25.38V244.47Z" transform="translate(0 -163.77)"/><path class="cls-1" d="M403.29,244.47h-32v42.16c0,14,14.33,25.38,32,25.38h0c17.67,0,32-11.36,32-25.38V244.47Z" transform="translate(0 -163.77)"/><path class="cls-1" d="M32,325.17H0v42.16c0,14,14.33,25.39,32,25.39h0c17.68,0,32-11.37,32-25.39V325.17Z" transform="translate(0 -163.77)"/><path class="cls-1" d="M106.16,325.17h-32v42.16c0,14,14.33,25.39,32,25.39h0c17.68,0,32-11.37,32-25.39V325.17Z" transform="translate(0 -163.77)"/><path class="cls-1" d="M180.32,325.17h-32v42.16c0,14,14.33,25.39,32,25.39h0c17.68,0,32-11.37,32-25.39V325.17Z" transform="translate(0 -163.77)"/><path class="cls-1" d="M254.48,325.17h-32v42.16c0,14,14.33,25.39,32,25.39h0c17.68,0,32-11.37,32-25.39V325.17Z" transform="translate(0 -163.77)"/><path class="cls-1" d="M328.64,325.17h-32v42.16c0,14,14.33,25.39,32,25.39h0c17.68,0,32-11.37,32-25.39V325.17Z" transform="translate(0 -163.77)"/><path class="cls-1" d="M402.8,325.17h-32v42.16c0,14,14.33,25.39,32,25.39h0c17.68,0,32-11.37,32-25.39V325.17Z" transform="translate(0 -163.77)"/><path class="cls-1" d="M491.63,163.77h-32v42.16c0,14,14.32,25.38,32,25.38h0c17.67,0,32-11.36,32-25.38V163.77Z" transform="translate(0 -163.77)"/><path class="cls-1" d="M565.79,163.77h-32v42.16c0,14,14.32,25.38,32,25.38h0c17.67,0,32-11.36,32-25.38V163.77Z" transform="translate(0 -163.77)"/><path class="cls-1" d="M640,163.77H608v42.16c0,14,14.32,25.38,32,25.38h0c17.67,0,32-11.36,32-25.38V163.77Z" transform="translate(0 -163.77)"/><path class="cls-1" d="M714.11,163.77h-32v42.16c0,14,14.32,25.38,32,25.38h0c17.67,0,32-11.36,32-25.38V163.77Z" transform="translate(0 -163.77)"/><path class="cls-1" d="M788.27,163.77h-32v42.16c0,14,14.32,25.38,32,25.38h0c17.67,0,32-11.36,32-25.38V163.77Z" transform="translate(0 -163.77)"/><path class="cls-1" d="M862.43,163.77h-32v42.16c0,14,14.32,25.38,32,25.38h0c17.67,0,32-11.36,32-25.38V163.77Z" transform="translate(0 -163.77)"/><path class="cls-1" d="M491.63,244.47h-32v42.16c0,14,14.32,25.38,32,25.38h0c17.67,0,32-11.36,32-25.38V244.47Z" transform="translate(0 -163.77)"/><path class="cls-1" d="M565.79,244.47h-32v42.16c0,14,14.32,25.38,32,25.38h0c17.67,0,32-11.36,32-25.38V244.47Z" transform="translate(0 -163.77)"/><path class="cls-1" d="M640,244.47H608v42.16c0,14,14.32,25.38,32,25.38h0c17.67,0,32-11.36,32-25.38V244.47Z" transform="translate(0 -163.77)"/><path class="cls-1" d="M714.11,244.47h-32v42.16c0,14,14.32,25.38,32,25.38h0c17.67,0,32-11.36,32-25.38V244.47Z" transform="translate(0 -163.77)"/><path class="cls-1" d="M788.27,244.47h-32v42.16c0,14,14.32,25.38,32,25.38h0c17.67,0,32-11.36,32-25.38V244.47Z" transform="translate(0 -163.77)"/><path class="cls-1" d="M862.43,244.47h-32v42.16c0,14,14.32,25.38,32,25.38h0c17.67,0,32-11.36,32-25.38V244.47Z" transform="translate(0 -163.77)"/><path class="cls-1" d="M491.14,325.17h-32v42.16c0,14,14.33,25.39,32,25.39h0c17.68,0,32-11.37,32-25.39V325.17Z" transform="translate(0 -163.77)"/><path class="cls-1" d="M565.3,325.17h-32v42.16c0,14,14.33,25.39,32,25.39h0c17.68,0,32-11.37,32-25.39V325.17Z" transform="translate(0 -163.77)"/><path class="cls-1" d="M639.46,325.17h-32v42.16c0,14,14.33,25.39,32,25.39h0c17.68,0,32-11.37,32-25.39V325.17Z" transform="translate(0 -163.77)"/><path class="cls-1" d="M713.62,325.17h-32v42.16c0,14,14.33,25.39,32,25.39h0c17.68,0,32-11.37,32-25.39V325.17Z" transform="translate(0 -163.77)"/><path class="cls-1" d="M787.78,325.17h-32v42.16c0,14,14.33,25.39,32,25.39h0c17.68,0,32-11.37,32-25.39V325.17Z" transform="translate(0 -163.77)"/><path class="cls-1" d="M861.94,325.17h-32v42.16c0,14,14.33,25.39,32,25.39h0c17.68,0,32-11.37,32-25.39V325.17Z" transform="translate(0 -163.77)"/><path class="cls-1" d="M33.06,418.05h-32v42.16c0,14,14.33,25.39,32,25.39h0c17.67,0,32-11.37,32-25.39V418.05Z" transform="translate(0 -163.77)"/><path class="cls-1" d="M107.22,418.05h-32v42.16c0,14,14.33,25.39,32,25.39h0c17.67,0,32-11.37,32-25.39V418.05Z" transform="translate(0 -163.77)"/><path class="cls-1" d="M181.38,418.05h-32v42.16c0,14,14.33,25.39,32,25.39h0c17.67,0,32-11.37,32-25.39V418.05Z" transform="translate(0 -163.77)"/><path class="cls-1" d="M255.54,418.05h-32v42.16c0,14,14.33,25.39,32,25.39h0c17.67,0,32-11.37,32-25.39V418.05Z" transform="translate(0 -163.77)"/><path class="cls-1" d="M329.7,418.05h-32v42.16c0,14,14.33,25.39,32,25.39h0c17.67,0,32-11.37,32-25.39V418.05Z" transform="translate(0 -163.77)"/><path class="cls-1" d="M403.86,418.05h-32v42.16c0,14,14.33,25.39,32,25.39h0c17.67,0,32-11.37,32-25.39V418.05Z" transform="translate(0 -163.77)"/><path class="cls-1" d="M33.06,498.75h-32v42.16c0,14,14.33,25.39,32,25.39h0c17.67,0,32-11.37,32-25.39V498.75Z" transform="translate(0 -163.77)"/><path class="cls-1" d="M107.22,498.75h-32v42.16c0,14,14.33,25.39,32,25.39h0c17.67,0,32-11.37,32-25.39V498.75Z" transform="translate(0 -163.77)"/><path class="cls-1" d="M181.38,498.75h-32v42.16c0,14,14.33,25.39,32,25.39h0c17.67,0,32-11.37,32-25.39V498.75Z" transform="translate(0 -163.77)"/><path class="cls-1" d="M255.54,498.75h-32v42.16c0,14,14.33,25.39,32,25.39h0c17.67,0,32-11.37,32-25.39V498.75Z" transform="translate(0 -163.77)"/><path class="cls-1" d="M329.7,498.75h-32v42.16c0,14,14.33,25.39,32,25.39h0c17.67,0,32-11.37,32-25.39V498.75Z" transform="translate(0 -163.77)"/><path class="cls-1" d="M403.86,498.75h-32v42.16c0,14,14.33,25.39,32,25.39h0c17.67,0,32-11.37,32-25.39V498.75Z" transform="translate(0 -163.77)"/><path class="cls-1" d="M32.57,579.45H.57v42.16c0,14,14.33,25.39,32,25.39h0c17.68,0,32-11.37,32-25.39V579.45Z" transform="translate(0 -163.77)"/><path class="cls-1" d="M106.73,579.45h-32v42.16c0,14,14.33,25.39,32,25.39h0c17.68,0,32-11.37,32-25.39V579.45Z" transform="translate(0 -163.77)"/><path class="cls-1" d="M180.89,579.45h-32v42.16c0,14,14.33,25.39,32,25.39h0c17.68,0,32-11.37,32-25.39V579.45Z" transform="translate(0 -163.77)"/><path class="cls-1" d="M255.05,579.45h-32v42.16c0,14,14.33,25.39,32,25.39h0c17.68,0,32-11.37,32-25.39V579.45Z" transform="translate(0 -163.77)"/><path class="cls-1" d="M329.21,579.45h-32v42.16c0,14,14.33,25.39,32,25.39h0c17.68,0,32-11.37,32-25.39V579.45Z" transform="translate(0 -163.77)"/><path class="cls-1" d="M403.37,579.45h-32v42.16c0,14,14.33,25.39,32,25.39h0c17.68,0,32-11.37,32-25.39V579.45Z" transform="translate(0 -163.77)"/><path class="cls-1" d="M492.2,418.05h-32v42.16c0,14,14.32,25.39,32,25.39h0c17.67,0,32-11.37,32-25.39V418.05Z" transform="translate(0 -163.77)"/><path class="cls-1" d="M566.36,418.05h-32v42.16c0,14,14.32,25.39,32,25.39h0c17.67,0,32-11.37,32-25.39V418.05Z" transform="translate(0 -163.77)"/><path class="cls-1" d="M640.52,418.05h-32v42.16c0,14,14.32,25.39,32,25.39h0c17.67,0,32-11.37,32-25.39V418.05Z" transform="translate(0 -163.77)"/><path class="cls-1" d="M714.68,418.05h-32v42.16c0,14,14.32,25.39,32,25.39h0c17.67,0,32-11.37,32-25.39V418.05Z" transform="translate(0 -163.77)"/><path class="cls-1" d="M788.84,418.05h-32v42.16c0,14,14.32,25.39,32,25.39h0c17.67,0,32-11.37,32-25.39V418.05Z" transform="translate(0 -163.77)"/><path class="cls-1" d="M863,418.05H831v42.16c0,14,14.32,25.39,32,25.39h0c17.67,0,32-11.37,32-25.39V418.05Z" transform="translate(0 -163.77)"/><path class="cls-1" d="M492.2,498.75h-32v42.16c0,14,14.32,25.39,32,25.39h0c17.67,0,32-11.37,32-25.39V498.75Z" transform="translate(0 -163.77)"/><path class="cls-1" d="M566.36,498.75h-32v42.16c0,14,14.32,25.39,32,25.39h0c17.67,0,32-11.37,32-25.39V498.75Z" transform="translate(0 -163.77)"/><path class="cls-1" d="M640.52,498.75h-32v42.16c0,14,14.32,25.39,32,25.39h0c17.67,0,32-11.37,32-25.39V498.75Z" transform="translate(0 -163.77)"/><path class="cls-1" d="M714.68,498.75h-32v42.16c0,14,14.32,25.39,32,25.39h0c17.67,0,32-11.37,32-25.39V498.75Z" transform="translate(0 -163.77)"/><path class="cls-1" d="M788.84,498.75h-32v42.16c0,14,14.32,25.39,32,25.39h0c17.67,0,32-11.37,32-25.39V498.75Z" transform="translate(0 -163.77)"/><path class="cls-1" d="M863,498.75H831v42.16c0,14,14.32,25.39,32,25.39h0c17.67,0,32-11.37,32-25.39V498.75Z" transform="translate(0 -163.77)"/><path class="cls-1" d="M491.71,579.45h-32v42.16c0,14,14.33,25.39,32,25.39h0c17.68,0,32-11.37,32-25.39V579.45Z" transform="translate(0 -163.77)"/><path class="cls-1" d="M565.87,579.45h-32v42.16c0,14,14.33,25.39,32,25.39h0c17.68,0,32-11.37,32-25.39V579.45Z" transform="translate(0 -163.77)"/><path class="cls-1" d="M640,579.45H608v42.16c0,14,14.33,25.39,32,25.39h0c17.68,0,32-11.37,32-25.39V579.45Z" transform="translate(0 -163.77)"/><path class="cls-1" d="M714.19,579.45h-32v42.16c0,14,14.33,25.39,32,25.39h0c17.68,0,32-11.37,32-25.39V579.45Z" transform="translate(0 -163.77)"/><path class="cls-1" d="M788.35,579.45h-32v42.16c0,14,14.33,25.39,32,25.39h0c17.68,0,32-11.37,32-25.39V579.45Z" transform="translate(0 -163.77)"/><path class="cls-1" d="M862.51,579.45h-32v42.16c0,14,14.33,25.39,32,25.39h0c17.68,0,32-11.37,32-25.39V579.45Z" transform="translate(0 -163.77)"/></svg>