<svg id="Слой_1" data-name="Слой 1" xmlns="http://www.w3.org/2000/svg" viewBox="0 0 893.76 85.15"><defs><style>.cls-1{fill:#666;}</style></defs><title>vip_sector</title><path class="cls-1" d="M325.15,1393.54h-69v53.14c0,17.68,30.9,32,69,32h0c38.12,0,69-14.32,69-32v-53.14Z" transform="translate(-256.14 -1393.54)"/><path class="cls-1" d="M473.46,1393.54h-69v53.14c0,17.68,30.89,32,69,32h0c38.11,0,69-14.32,69-32v-53.14Z" transform="translate(-256.14 -1393.54)"/><path class="cls-1" d="M621.77,1393.54h-69v53.14c0,17.68,30.89,32,69,32h0c38.1,0,69-14.32,69-32v-53.14Z" transform="translate(-256.14 -1393.54)"/><path class="cls-1" d="M784.3,1393.54h-69v53.14c0,17.68,30.9,32,69,32h0c38.11,0,69-14.32,69-32v-53.14Z" transform="translate(-256.14 -1393.54)"/><path class="cls-1" d="M932.6,1393.54h-69v53.14c0,17.68,30.9,32,69,32h0c38.11,0,69-14.32,69-32v-53.14Z" transform="translate(-256.14 -1393.54)"/><path class="cls-1" d="M1080.91,1393.54h-69v53.14c0,17.68,30.89,32,69,32h0c38.1,0,69-14.32,69-32v-53.14Z" transform="translate(-256.14 -1393.54)"/></svg>